{
  "accessors": [
    {
      "bufferView": 2,
      "componentType": 5126,
      "count": 52142,
      "max": [
        164.828125,
        322.4234619140625,
        360.3620300292969
      ],
      "min": [
        -136.3280029296875,
        -266.9718933105469,
        -328.5414123535156
      ],
      "type": "VEC3"
    },
    {
      "bufferView": 2,
      "byteOffset": 625704,
      "componentType": 5126,
      "count": 52142,
      "max": [
        0.9999969601631165,
        0.9999202489852905,
        0.9999528527259827
      ],
      "min": [
        -0.9999929070472717,
        -0.9999920725822449,
        -0.9999954104423523
      ],
      "type": "VEC3"
    },
    {
      "bufferView": 3,
      "componentType": 5126,
      "count": 52142,
      "max": [
        0.999994158744812,
        0.9999006986618042,
        0.9999987483024597,
        1.0
      ],
      "min": [
        -0.9998977780342102,
        -0.9994621276855469,
        -0.9997825026512146,
        -1.0
      ],
      "type": "VEC4"
    },
    {
      "bufferView": 1,
      "componentType": 5126,
      "count": 52142,
      "max": [
        0.9970399737358093,
        0.9970399737358093
      ],
      "min": [
        0.002950000111013651,
        0.008539999835193157
      ],
      "type": "VEC2"
    },
    {
      "bufferView": 0,
      "componentType": 5125,
      "count": 286968,
      "type": "SCALAR"
    }
  ],
  "asset": {
    "extras": {
      "author": "Virtual Museums of Małopolska (https://sketchfab.com/WirtualneMuzeaMalopolski)",
      "license": "CC0-1.0 (http://creativecommons.org/publicdomain/zero/1.0/)",
      "source": "https://sketchfab.com/3d-models/drum-on-a-caryatid-9152b019a6bb4473a3a5299f7d77709c",
      "title": "Drum on a caryatid"
    },
    "generator": "Sketchfab-12.68.0",
    "version": "2.0"
  },
  "bufferViews": [
    {
      "buffer": 0,
      "byteLength": 1147872,
      "name": "floatBufferViews",
      "target": 34963
    },
    {
      "buffer": 0,
      "byteLength": 417136,
      "byteOffset": 1147872,
      "byteStride": 8,
      "name": "floatBufferViews",
      "target": 34962
    },
    {
      "buffer": 0,
      "byteLength": 1251408,
      "byteOffset": 1565008,
      "byteStride": 12,
      "name": "floatBufferViews",
      "target": 34962
    },
    {
      "buffer": 0,
      "byteLength": 834272,
      "byteOffset": 2816416,
      "byteStride": 16,
      "name": "floatBufferViews",
      "target": 34962
    }
  ],
  "buffers": [
    {
      "byteLength": 3650688,
      "uri": "scene.bin"
    }
  ],
  "images": [
    {
      "uri": "textures/drewno_baseColor.jpeg"
    },
    {
      "uri": "textures/drewno_metallicRoughness.png"
    },
    {
      "uri": "textures/drewno_normal.png"
    }
  ],
  "materials": [
    {
      "doubleSided": true,
      "name": "drewno",
      "normalTexture": {
        "index": 2
      },
      "pbrMetallicRoughness": {
        "baseColorTexture": {
          "index": 0
        },
        "metallicFactor": 0.0,
        "metallicRoughnessTexture": {
          "index": 1
        }
      }
    }
  ],
  "meshes": [
    {
      "name": "M_O_A_404_Beben_20texture_0",
      "primitives": [
        {
          "attributes": {
            "NORMAL": 1,
            "POSITION": 0,
            "TANGENT": 2,
            "TEXCOORD_0": 3
          },
          "indices": 4,
          "material": 0,
          "mode": 4
        }
      ]
    }
  ],
  "nodes": [
    {
      "children": [
        1
      ],
      "matrix": [
        1.0,
        0.0,
        0.0,
        0.0,
        0.0,
        2.220446049250313e-16,
        -1.0,
        0.0,
        0.0,
        1.0,
        2.220446049250313e-16,
        0.0,
        7.0794878005981445,
        -14.686470985412601,
        14.511795043945309,
        1.0
      ],
      "name": "Sketchfab_model"
    },
    {
      "children": [
        2,
        4
      ],
      "name": "Root"
    },
    {
      "children": [
        3
      ],
      "matrix": [
        -0.29086000000000006,
        0.9551700000000001,
        -0.05519000000000001,
        0.0,
        -0.7711,
        -0.19988000000000003,
        0.6045200000000001,
        0.0,
        0.5663900000000001,
        0.21839000000000003,
        0.7946700000000001,
        0.0,
        4.076250000000001,
        1.00545,
        5.903860000000001,
        1.0
      ],
      "name": "Lamp"
    },
    {
      "name": "Lamp"
    },
    {
      "children": [
        5
      ],
      "matrix": [
        0.99188,
        0.12303000000000001,
        -0.032240000000000005,
        0.0,
        0.12364000000000001,
        -0.8732900000000001,
        0.47125,
        0.0,
        0.029820000000000003,
        -0.47141000000000005,
        -0.88141,
        0.0,
        0.0,
        0.0,
        0.0,
        1.0
      ],
      "name": "M_O_A_404_Beben_20texture"
    },
    {
      "mesh": 0,
      "name": "M_O_A_404_Beben_20texture_0"
    }
  ],
  "samplers": [
    {
      "magFilter": 9729,
      "minFilter": 9987,
      "wrapS": 10497,
      "wrapT": 10497
    }
  ],
  "scene": 0,
  "scenes": [
    {
      "name": "Sketchfab_Scene",
      "nodes": [
        0
      ]
    }
  ],
  "textures": [
    {
      "sampler": 0,
      "source": 0
    },
    {
      "sampler": 0,
      "source": 1
    },
    {
      "sampler": 0,
      "source": 2
    }
  ]
}
